<svg width="24" height="66" viewBox="0 0 24 66" fill="none" xmlns="http://www.w3.org/2000/svg">
<rect width="24" height="66" fill="#AB8956"/>
<path fill-rule="evenodd" clip-rule="evenodd" d="M2 31C2 30.8527 2.0602 30.7114 2.16736 30.6072C2.27451 30.503 2.41985 30.4445 2.57139 30.4445H16.0482L12.4519 26.9495C12.3446 26.8452 12.2843 26.7037 12.2843 26.5562C12.2843 26.4087 12.3446 26.2672 12.4519 26.1629C12.5592 26.0586 12.7047 26 12.8565 26C13.0082 26 13.1537 26.0586 13.261 26.1629L17.8321 30.6067C17.8853 30.6583 17.9276 30.7196 17.9564 30.7871C17.9852 30.8546 18 30.9269 18 31C18 31.0731 17.9852 31.1454 17.9564 31.2129C17.9276 31.2804 17.8853 31.3417 17.8321 31.3933L13.261 35.8371C13.1537 35.9414 13.0082 36 12.8565 36C12.7047 36 12.5592 35.9414 12.4519 35.8371C12.3446 35.7328 12.2843 35.5913 12.2843 35.4438C12.2843 35.2963 12.3446 35.1548 12.4519 35.0505L16.0482 31.5555H2.57139C2.41985 31.5555 2.27451 31.497 2.16736 31.3928C2.0602 31.2886 2 31.1473 2 31Z" fill="#DEDEDE"/>
</svg>
